<?xml version="1.0" encoding="utf-8"?>
<!-- Generator: Adobe Illustrator 19.0.0, SVG Export Plug-In . SVG Version: 6.00 Build 0)  -->
<svg version="1.1" id="Camada_1" xmlns="http://www.w3.org/2000/svg" xmlns:xlink="http://www.w3.org/1999/xlink" x="0px" y="0px"
	 viewBox="0 0 402 426" style="enable-background:new 0 0 402 426;" xml:space="preserve">
<style type="text/css">
	.st0{fill:#B2B2B2;}
	.st1{fill:#37669F;}
	.st2{fill:#5683B5;}
	.st3{fill:#F7F7F8;}
	.st4{fill:#D8D9DD;}
</style>
<g id="XMLID_7_">
	<g id="XMLID_1_">
		<path id="XMLID_52_" class="st0" d="M200.4,11.2l-0.4,0.1L10.3,78.1l30,249.1l159.6,87.7l0.1,0l161.7-88.9l30-249L200.4,11.2z
			 M199.5,386.1V31.9V386.1z"/>
		<g id="XMLID_6_">
			<polygon id="XMLID_9_" class="st1" points="200,32.4 200,394.1 344.8,314 372.7,91.3 			"/>
			<polygon id="XMLID_49_" class="st1" points="199.5,32.5 199.5,386.1 199.5,32.5 31.6,92.3 57.4,315.1 199.9,394.1 200,32.4 			
				"/>
		</g>
		<g id="XMLID_2_">
			<polygon id="XMLID_3_" class="st2" points="200,32.4 200,394.1 344.8,314 372.7,91.3 			"/>
			<polygon id="XMLID_48_" class="st2" points="199.5,32.5 199.5,386.1 199.5,32.5 31.6,92.3 57.4,315.1 199.9,394.1 200,32.4 			
				"/>
		</g>
		<polygon id="XMLID_65_" class="st1" points="372.7,91.3 200,32.4 200,394.1 344.8,314 		"/>
	</g>
	<g id="XMLID_5_">
		<polygon id="XMLID_64_" class="st3" points="85.5,87.7 85.5,314.3 95.4,314.3 95.4,106.5 173.7,255.2 184.8,255.2 96.6,87.7 		"/>
		<polygon id="XMLID_66_" class="st3" points="124.9,314.3 134.8,314.3 134.8,195.3 124.9,176.7 		"/>
		<polygon id="XMLID_68_" class="st3" points="105.2,314.3 115.1,314.3 115.1,157.9 105.2,139.2 		"/>
		<polygon id="XMLID_70_" class="st3" points="144.6,314.3 154.5,314.3 154.5,232.7 144.6,214.1 		"/>
		<polygon id="XMLID_73_" class="st3" points="107.8,87.7 195.9,255.2 200,255.2 200,241.6 119,87.7 		"/>
		<polygon id="XMLID_74_" class="st3" points="141.2,87.7 130.1,87.7 200,220.8 200,199.5 		"/>
	</g>
	<g id="XMLID_4_">
		<polygon id="XMLID_63_" class="st4" points="248.6,314.3 258.4,314.3 258.4,213 248.6,231.6 		"/>
		<polygon id="XMLID_67_" class="st4" points="221.9,227 295.2,87.7 284.1,87.7 216.3,216.7 		"/>
		<polygon id="XMLID_69_" class="st4" points="272.9,87.7 261.7,87.7 204.8,195.1 210.5,205.5 		"/>
		<polygon id="XMLID_71_" class="st4" points="268.3,314.3 278.1,314.3 278.1,175.3 268.3,193.9 		"/>
		<polygon id="XMLID_72_" class="st4" points="306.3,87.7 223.8,244.8 200,199.5 200,220.8 218.1,255.2 229.3,255.2 307.7,106.5 
			307.7,314.3 317.5,314.3 317.5,87.7 		"/>
		<polygon id="XMLID_75_" class="st4" points="288,314.3 297.8,314.3 297.8,137.9 288,156.7 		"/>
		<polygon id="XMLID_76_" class="st4" points="207.1,255.2 200,241.6 200,255.2 		"/>
	</g>
</g>
<g id="XMLID_19_">
	<polygon id="XMLID_27_" class="st0" points="1775.3,-843.8 1774.9,-843.7 1585.2,-776.9 1615.3,-527.8 1774.9,-440.1 
		1774.9,-440.1 1936.6,-529 1966.6,-778.1 	"/>
	<g id="XMLID_24_">
		<polygon id="XMLID_26_" class="st1" points="1774.9,-822.6 1774.9,-460.8 1919.7,-541 1947.7,-763.7 		"/>
		<polygon id="XMLID_25_" class="st1" points="1632.3,-539.9 1774.9,-460.8 1774.9,-822.6 1606.6,-762.6 		"/>
	</g>
	<g id="XMLID_21_">
		<polygon id="XMLID_23_" class="st2" points="1774.9,-822.6 1774.9,-460.8 1919.7,-541 1947.7,-763.7 		"/>
		<polygon id="XMLID_22_" class="st2" points="1632.3,-539.9 1774.9,-460.8 1774.9,-822.6 1606.6,-762.6 		"/>
	</g>
	<polygon id="XMLID_20_" class="st1" points="1947.7,-763.7 1774.9,-822.6 1774.9,-460.8 1919.7,-541 	"/>
</g>
<text id="XMLID_17_" transform="matrix(1 0 0 1 1675.6127 -570.1808)" class="st4" style="font-family:'Monoton-Regular'; font-size:219.4403px;">M</text>
<text id="XMLID_16_" transform="matrix(1 0 0 1 -748.2662 -564.1811)" class="st4" style="font-family:'Monoton-Regular'; font-size:219.4403px;">Angular Morris</text>
</svg>
