<?xml version="1.0" encoding="utf-8"?>
<!-- Generator: Adobe Illustrator 19.0.0, SVG Export Plug-In . SVG Version: 6.00 Build 0)  -->
<svg version="1.1" id="Camada_1" xmlns="http://www.w3.org/2000/svg" xmlns:xlink="http://www.w3.org/1999/xlink" x="0px" y="0px"
	 viewBox="0 0 402 426" style="enable-background:new 0 0 402 426;" xml:space="preserve">
<style type="text/css">
	.st0{fill:#B2B2B2;}
	.st1{fill:#AB3332;}
	.st2{fill:#C33D3E;}
	.st3{fill:#EDEEF0;}
	.st4{fill:#D8D9DD;}
	.st5{fill:none;}
	.st6{fill:#E6E6E6;}
</style>
<g id="XMLID_10_">
	<polygon id="XMLID_7_" class="st0" points="200.4,11.2 200,11.3 10.3,78.1 40.3,327.1 199.9,414.8 200,414.8 361.7,325.9 
		391.7,76.9 	"/>
	<g id="XMLID_6_">
		<polygon id="XMLID_9_" class="st1" points="200,32.4 200,394.1 344.8,314 372.7,91.3 		"/>
		<polygon id="XMLID_11_" class="st1" points="57.4,315.1 199.9,394.1 200,32.4 31.6,92.3 		"/>
	</g>
	<g id="XMLID_1_">
		<polygon id="XMLID_3_" class="st2" points="200,32.4 200,394.1 344.8,314 372.7,91.3 		"/>
		<polygon id="XMLID_8_" class="st2" points="57.4,315.1 199.9,394.1 200,32.4 31.6,92.3 		"/>
	</g>
	<polygon id="XMLID_65_" class="st1" points="372.7,91.3 200,32.4 200,394.1 344.8,314 	"/>
	<g id="XMLID_2_">
		<path id="XMLID_51_" class="st3" d="M136.8,175.2c0,0,21.9,10,30.1,9.6c6.4,3.2,2.8,27.1-12.1,32.2
			C139.8,222.2,123.9,197.7,136.8,175.2z"/>
		<path id="XMLID_50_" class="st4" d="M261.7,175.2c0,0-21.9,10-30.1,9.6c-6.4,3.2-2.8,27.1,12.1,32.2S274.6,197.7,261.7,175.2z"/>
		<g id="XMLID_4_">
			<path id="XMLID_5_" class="st5" d="M269.3,168.3c0,0-2-2.4-23.1-4c-21.4,0.3-40.4,0.1-46.2,0c-1.2,0-1.8,0-1.8,0
				s-22.2,0.4-47.9,0c-21.1,1.6-23.1,4-23.1,4c-30.3,21.6-4.1,50.1-4.1,50.1c29,2,42.7-6.5,54.3-9.3c11.6-2.8,20.9-2.8,20.9-2.8
				s0.6,0,1.8,0c3.2,0.1,10.6,0.7,19.1,2.7c11.6,2.8,25.3,11.3,54.3,9.3C273.4,218.5,299.6,189.9,269.3,168.3z"/>
			<path id="XMLID_18_" class="st6" d="M297.4,114.6c3.2-16.4,1.5-32.5-3.5-42.1c-20,1.1-31.6,6.9-46.1,18c-20.7-5-34.6-5-47.8-5.5
				c-13.2,0.5-27.1,0.5-47.8,5.5c-14.5-11.1-26.1-16.9-46.1-18c-5,9.6-6.7,25.6-3.5,42.1c-9.4,13.8-27.3,40.1-19,53.1
				c-1.5,11.6,0.5,27.8,7.5,44.6c5.1,28,47.9,44.4,73.2,43.9c-9.6,4.9-6.5,7.2-5.5,7.8c-4.1,10.2-8.8,16.7-6,36
				c0,7.8-0.1,27.8,0.2,28.2c0.3,0.5,1.1,0.5,1.4,1.2c0.2,0.7,0.2,4.5,0,5.4c-0.2,1-1.6,8.4-11.5,13.8c-6,4.1-1,6.5,0.7,6.8
				c5.5,0,9.5,0.3,19.2-3.7c9.7-4.8,3.6-18.8,9.7-23.8c0.4-0.3,0.2,0,0.5-0.5s-1.5-39.6,2.9-44.1c1.9,0.2-2.4,13.2-0.5,35.7
				c0.3,2.7,2.3,7.8,2.8,10.5c1.4,6.6,2.7,16.5-6.6,26c-6.1,6.2-3.9,7.7-2.5,8.8c3.2,2.3,22-0.9,24.1-6.7c1.3-3.7-1.3-2.5-1.7-3.4
				c6.8-7,6.2-16.3,5.9-24.2c-0.2-0.3-1.1-0.2-1.1-0.6c1.6-2.8,2.8-2.5,2.4-8.9c-0.1-8.1,0.9-13.5-0.1-17.9c-0.1-0.5-0.6-1.3,1-1.8
				h0.7h0.7c1.6,0.5,1.1,1.3,1,1.8c-1,4.4,0,9.8-0.1,17.9c-0.4,6.4,0.8,6.1,2.4,8.9c0,0.3-0.9,0.3-1.1,0.6
				c-0.3,7.9-0.9,17.2,5.9,24.2c-0.4,0.9-3-0.3-1.7,3.4c2,5.8,20.9,9.1,24.1,6.7c1.4-1,3.5-2.6-2.5-8.8c-9.3-9.5-8-19.5-6.6-26
				c0.6-2.7,2.5-7.8,2.8-10.5c2-22.5-2.4-35.5-0.5-35.7c4.4,4.5,2.7,43.6,2.9,44.1c0.3,0.5,0.1,0.2,0.5,0.5c6,5,0,19,9.7,23.8
				c9.7,4,13.7,3.7,19.2,3.7c1.7-0.3,6.7-2.7,0.7-6.8c-10-5.3-11.3-12.8-11.5-13.8c-0.2-1-0.2-4.8,0-5.4c0.2-0.7,1.1-0.7,1.4-1.2
				c0.3-0.5,0.2-20.5,0.2-28.2c2.7-19.4-1.9-25.9-6-36c1-0.7,4.1-2.9-5.5-7.8c25.3,0.4,68.1-15.9,73.2-43.9c7-16.7,9-33,7.5-44.6
				C324.7,154.7,306.8,128.3,297.4,114.6z M273.4,218.5c-29,2-42.7-6.5-54.3-9.3c-8.5-2.1-15.9-2.6-19.1-2.7c-1.1,0-1.8,0-1.8,0
				s-9.4,0-20.9,2.8c-11.6,2.8-25.3,11.3-54.3,9.3c0,0-26.2-28.5,4.1-50.1c0,0,2-2.4,23.1-4c25.7,0.4,47.9,0,47.9,0s0.6,0,1.8,0
				c5.7,0.1,24.7,0.3,46.2,0c21.1,1.6,23.1,4,23.1,4C299.6,189.9,273.4,218.5,273.4,218.5z"/>
		</g>
		<g id="XMLID_35_">
			<path id="XMLID_58_" class="st3" d="M198.2,206.4c0,0-9.4,0-20.9,2.8c-11.6,2.8-25.3,11.3-54.3,9.3c0,0-26.2-28.5,4.1-50.1
				c0,0,2-2.4,23.1-4c25.7,0.4,47.9,0,47.9,0s0.6,0,1.8,0V85c-13.2,0.5-27.1,0.5-47.8,5.5c-14.5-11.1-26.1-16.9-46.1-18
				c-5,9.6-6.7,25.6-3.5,42.1c-9.4,13.8-27.3,40.1-19,53.1c-1.5,11.6,0.5,27.8,7.5,44.6c5.1,28,47.9,44.4,73.2,43.9
				c-9.6,4.9-6.5,7.2-5.5,7.8c-4.1,10.2-8.8,16.7-6,36c0,7.8-0.1,27.8,0.2,28.2c0.3,0.5,1.1,0.5,1.4,1.2c0.2,0.7,0.2,4.5,0,5.4
				c-0.2,1-1.6,8.4-11.5,13.8c-6,4.1-1,6.5,0.7,6.8c5.5,0,9.5,0.3,19.2-3.7c9.7-4.8,3.6-18.8,9.7-23.8c0.4-0.3,0.2,0,0.5-0.5
				s-1.5-39.6,2.9-44.1c1.9,0.2-2.4,13.2-0.5,35.7c0.3,2.7,2.3,7.8,2.8,10.5c1.4,6.6,2.7,16.5-6.6,26c-6.1,6.2-3.9,7.7-2.5,8.8
				c3.2,2.3,22-0.9,24.1-6.7c1.3-3.7-1.3-2.5-1.7-3.4c6.8-7,6.2-16.3,5.9-24.2c-0.2-0.3-1.1-0.2-1.1-0.6c1.6-2.8,2.8-2.5,2.4-8.9
				c-0.1-8.1,0.9-13.5-0.1-17.9c-0.1-0.5-0.6-1.3,1-1.8h0.7v-94.3C198.9,206.4,198.2,206.4,198.2,206.4z"/>
			<path id="XMLID_66_" class="st4" d="M297.4,114.6c3.2-16.4,1.5-32.5-3.5-42.1c-20,1.1-31.6,6.9-46.1,18c-20.7-5-34.6-5-47.8-5.5
				v79.4c5.7,0.1,24.7,0.3,46.2,0c21.1,1.6,23.1,4,23.1,4c30.3,21.6,4.1,50.1,4.1,50.1c-29,2-42.7-6.5-54.3-9.3
				c-8.5-2.1-15.9-2.6-19.1-2.7v94.3h0.7c1.6,0.5,1.1,1.3,1,1.8c-1,4.4,0,9.8-0.1,17.9c-0.4,6.4,0.8,6.1,2.4,8.9
				c0,0.3-0.9,0.3-1.1,0.6c-0.3,7.9-0.9,17.2,5.9,24.2c-0.4,0.9-3-0.3-1.7,3.4c2,5.8,20.9,9.1,24.1,6.7c1.4-1,3.5-2.6-2.5-8.8
				c-9.3-9.5-8-19.5-6.6-26c0.6-2.7,2.5-7.8,2.8-10.5c2-22.5-2.4-35.5-0.5-35.7c4.4,4.5,2.7,43.6,2.9,44.1c0.3,0.5,0.1,0.2,0.5,0.5
				c6,5,0,19,9.7,23.8c9.7,4,13.7,3.7,19.2,3.7c1.7-0.3,6.7-2.7,0.7-6.8c-10-5.3-11.3-12.8-11.5-13.8c-0.2-1-0.2-4.8,0-5.4
				c0.2-0.7,1.1-0.7,1.4-1.2c0.3-0.5,0.2-20.5,0.2-28.2c2.7-19.4-1.9-25.9-6-36c1-0.7,4.1-2.9-5.5-7.8c25.3,0.4,68.1-15.9,73.2-43.9
				c7-16.7,9-33,7.5-44.6C324.7,154.7,306.8,128.3,297.4,114.6z"/>
		</g>
	</g>
</g>
</svg>
